<?xml version="1.0" encoding="UTF-8" standalone="no"?>
<!-- Created with Inkscape (http://www.inkscape.org/) -->

<svg
   xmlns:dc="http://purl.org/dc/elements/1.1/"
   xmlns:cc="http://creativecommons.org/ns#"
   xmlns:rdf="http://www.w3.org/1999/02/22-rdf-syntax-ns#"
   xmlns:svg="http://www.w3.org/2000/svg"
   xmlns="http://www.w3.org/2000/svg"
   xmlns:sodipodi="http://sodipodi.sourceforge.net/DTD/sodipodi-0.dtd"
   xmlns:inkscape="http://www.inkscape.org/namespaces/inkscape"
   width="210mm"
   height="297mm"
   viewBox="0 0 744.09448819 1052.3622047"
   id="svg2"
   version="1.1"
   inkscape:version="0.91 r13725"
   sodipodi:docname="Logo.svg">
  <defs
     id="defs4" />
  <sodipodi:namedview
     id="base"
     pagecolor="#ffffff"
     bordercolor="#666666"
     borderopacity="1.0"
     inkscape:pageopacity="0.0"
     inkscape:pageshadow="2"
     inkscape:zoom="0.24748737"
     inkscape:cx="207.7774"
     inkscape:cy="357.21938"
     inkscape:document-units="px"
     inkscape:current-layer="layer1"
     showgrid="false"
     inkscape:window-width="1280"
     inkscape:window-height="751"
     inkscape:window-x="-2"
     inkscape:window-y="0"
     inkscape:window-maximized="0"
     showguides="false" />
  <metadata
     id="metadata7">
    <rdf:RDF>
      <cc:Work
         rdf:about="">
        <dc:format>image/svg+xml</dc:format>
        <dc:type
           rdf:resource="http://purl.org/dc/dcmitype/StillImage" />
        <dc:title />
      </cc:Work>
    </rdf:RDF>
  </metadata>
  <g
     inkscape:label="Capa 1"
     inkscape:groupmode="layer"
     id="layer1">
    <path
       style="opacity:1;fill:#b3b3b3;fill-opacity:0;stroke:none;stroke-width:1.17200005;stroke-miterlimit:4;stroke-dasharray:none;stroke-opacity:1"
       d="m 76.286615,931.61753 c -20.45571,-2.41004 -46.59411,-9.98505 -60.96284,-17.6674 -7.0758696,-3.78309 -20.5859836,-13.58427 -30.022456,-21.78031 l -17.15723,-14.90177 0,-71.15365 0,-71.15369 9.710947,4.35923 c 18.4373594,8.2765 31.5739194,4.33863 41.329649,-12.38919 5.0652,-8.68519 5.20897,-46.28945 0.19573,-51.2013 -1.87223,-1.8344 -3.40406,-4.72205 -3.40406,-6.41705 0,-4.04225 -7.7964996,-4.06796 -8.6860796,-0.0279 -0.56935,2.58526 -1.04171,2.6559 -3.08205,0.461 -1.9195,-2.06488 -0.22843,-5.00863 8.3133596,-14.47148 7.94321,-8.79978 10.90846,-11.02546 11.43841,-8.58555 0.58228,2.68108 2.51757,1.76332 10.40359,-4.9337 5.32852,-4.52509 15.20674,-12.69381 21.9516,-18.15267 11.54556,-9.34421 12.20101,-9.62576 11.19715,-4.81011 -0.58642,2.81325 -0.29972,5.53507 0.63719,6.04851 2.5248,1.38358 24.31683,-22.78706 26.9691,-29.91281 1.25796,-3.37972 3.57892,-6.14497 5.157745,-6.14497 3.55547,0 11.37578,11.64128 19.37521,28.84204 6.75621,14.52751 13.74536,22.79036 19.27722,22.79036 5.58078,0 6.69449,3.34301 1.3383,4.01718 -2.59054,0.32617 -4.43301,1.42266 -4.09429,2.43686 0.91573,2.74234 12.64959,1.69005 16.67841,-1.49576 3.00554,-2.37661 3.88289,-2.40158 6.18404,-0.17596 1.47485,1.42649 6.39573,2.59367 10.93524,2.59367 l 8.25369,0 7.55369,14.29109 c 4.15452,7.8601 8.19106,15.48646 8.97008,16.94739 2.63008,4.93218 6.31846,4.29786 6.31846,-1.08667 l 0,-5.19173 4.86913,6.42111 c 2.67803,3.53156 6.54347,10.35089 8.58994,15.15399 2.04641,4.80311 5.00249,9.67607 6.56901,10.82885 2.33487,1.71824 2.84825,17.22662 2.84825,86.04391 l 0,83.94791 -7.61922,8.24462 c -9.49601,10.27556 -35.30612,28.60507 -48.84551,34.68855 -23.36751,10.49947 -64.78846,16.64873 -91.191405,13.53808 z M 141.2761,745.57342 c 3.1455,-1.36744 5.7191,-3.23184 5.7191,-4.14308 0,-0.91128 0.7122,-1.26658 1.58268,-0.78957 3.29705,1.80683 8.57966,-3.92704 11.89291,-12.90888 l 3.43826,-9.32073 -6.47692,-8.50953 c -6.90274,-9.06891 -17.51161,-16.91022 -20.59359,-15.22127 -2.84778,1.56059 -8.94385,-7.87718 -7.56902,-11.71814 1.60173,-4.4748 13.13396,-6.54939 17.54446,-3.15615 6.16863,4.74582 9.43936,4.47303 12.05662,-1.00565 3.73465,-7.8177 0.7702,-12.97429 -7.87283,-13.69459 -3.91715,-0.32652 -10.63153,-1.04659 -14.92082,-1.6002 -6.76881,-0.87373 -7.79876,-0.52439 -7.79876,2.64526 0,2.14277 -1.07429,3.30285 -2.59958,2.80721 -3.5923,-1.16735 -6.22555,0.78323 -11.54792,8.5542 -5.66236,8.26744 -5.76452,12.70163 -0.41013,17.79766 2.28762,2.1773 4.15932,4.86549 4.15932,5.97387 0,1.10834 3.21148,3.205 7.1366,4.6592 3.92517,1.4542 7.72375,3.48639 8.44142,4.51595 0.71762,1.02956 3.10341,1.87193 5.30172,1.87193 2.52903,0 4.47624,1.69313 5.30189,4.61004 0.71769,2.53553 2.19455,4.61005 3.28183,4.61005 5.29297,0 -1.54108,3.61828 -10.8143,5.72565 -8.02475,1.82363 -10.73631,3.36408 -11.65889,6.6234 -0.6612,2.33589 -1.9088,4.24708 -2.77247,4.24708 -0.86364,0 -1.46404,1.69073 -1.33426,3.75718 0.44551,7.09412 9.08108,8.63878 20.51268,3.66911 z m -63.447105,-6.83933 c 3.80605,-1.60148 7.81744,-4.39849 8.91424,-6.21559 1.09674,-1.81714 3.33537,-4.49314 4.9747,-5.94675 11.236065,-9.96284 14.743915,-24.05798 7.44497,-29.91494 -2.28764,-1.83571 -4.15936,-4.68398 -4.15936,-6.32957 0,-1.64556 -1.56918,-4.9784 -3.4871,-7.40636 -3.30665,-4.18597 -3.5682,-4.23107 -5.05301,-0.87132 -1.31845,2.98337 -1.58896,2.75916 -1.71201,-1.41908 -0.17712,-6.015 -0.83682,-6.40462 -18.37129,-10.85084 -14.94289,-3.78904 -21.25087,-3.3027 -21.35171,1.64624 -0.0523,2.57545 -0.4581,2.47595 -2.38638,-0.58529 -1.27776,-2.02841 -2.54264,-3.93586 -2.81088,-4.23876 -0.26836,-0.30282 -2.93775,-0.004 -5.93225,0.66093 -4.23325,0.94206 -5.44457,2.34775 -5.44457,6.31802 0,6.36716 4.53065,9.85024 12.55002,9.64805 3.41903,-0.0861 6.20288,0.81666 6.24756,2.02619 0.0443,1.19996 0.14825,14.21386 0.23129,28.91989 0.0827,14.70602 0.58979,27.38946 1.12669,28.18539 1.46097,2.16594 21.30686,-0.2969 29.21924,-3.62621 z"
       id="path4337"
       inkscape:connector-curvature="0" />
    <path
       style="opacity:1;fill:#b3b3b3;fill-opacity:0;stroke:none;stroke-width:1.17200005;stroke-miterlimit:4;stroke-dasharray:none;stroke-opacity:1"
       d="m 76.286615,931.61753 c -20.45571,-2.41004 -46.59411,-9.98505 -60.96284,-17.6674 -7.0758696,-3.78309 -20.5859836,-13.58427 -30.022456,-21.78031 l -17.15723,-14.90177 0,-71.15365 0,-71.15369 9.710947,4.35923 c 18.4373594,8.2765 31.5739194,4.33863 41.329649,-12.38919 5.0652,-8.68519 5.20897,-46.28945 0.19573,-51.2013 -1.87223,-1.8344 -3.40406,-4.72205 -3.40406,-6.41705 0,-4.04225 -7.7964996,-4.06796 -8.6860796,-0.0279 -0.56935,2.58526 -1.04171,2.6559 -3.08205,0.461 -1.9195,-2.06488 -0.22843,-5.00863 8.3133596,-14.47148 7.94321,-8.79978 10.90846,-11.02546 11.43841,-8.58555 0.58228,2.68108 2.51757,1.76332 10.40359,-4.9337 5.32852,-4.52509 15.20674,-12.69381 21.9516,-18.15267 11.54556,-9.34421 12.20101,-9.62576 11.19715,-4.81011 -0.58642,2.81325 -0.29972,5.53507 0.63719,6.04851 2.5248,1.38358 24.31683,-22.78706 26.9691,-29.91281 1.25796,-3.37972 3.57892,-6.14497 5.157745,-6.14497 3.55547,0 11.37578,11.64128 19.37521,28.84204 6.75621,14.52751 13.74536,22.79036 19.27722,22.79036 5.58078,0 6.69449,3.34301 1.3383,4.01718 -2.59054,0.32617 -4.43301,1.42266 -4.09429,2.43686 0.91573,2.74234 12.64959,1.69005 16.67841,-1.49576 3.00554,-2.37661 3.88289,-2.40158 6.18404,-0.17596 1.47485,1.42649 6.39573,2.59367 10.93524,2.59367 l 8.25369,0 7.55369,14.29109 c 4.15452,7.8601 8.19106,15.48646 8.97008,16.94739 2.63008,4.93218 6.31846,4.29786 6.31846,-1.08667 l 0,-5.19173 4.86913,6.42111 c 2.67803,3.53156 6.54347,10.35089 8.58994,15.15399 2.04641,4.80311 5.00249,9.67607 6.56901,10.82885 2.33487,1.71824 2.84825,17.22662 2.84825,86.04391 l 0,83.94791 -7.61922,8.24462 c -9.49601,10.27556 -35.30612,28.60507 -48.84551,34.68855 -23.36751,10.49947 -64.78846,16.64873 -91.191405,13.53808 z M 141.2761,745.57342 c 3.1455,-1.36744 5.7191,-3.23184 5.7191,-4.14308 0,-0.91128 0.7122,-1.26658 1.58268,-0.78957 3.29705,1.80683 8.57966,-3.92704 11.89291,-12.90888 l 3.43826,-9.32073 -6.47692,-8.50953 c -6.90274,-9.06891 -17.51161,-16.91022 -20.59359,-15.22127 -2.84778,1.56059 -8.94385,-7.87718 -7.56902,-11.71814 1.60173,-4.4748 13.13396,-6.54939 17.54446,-3.15615 6.16863,4.74582 9.43936,4.47303 12.05662,-1.00565 3.73465,-7.8177 0.7702,-12.97429 -7.87283,-13.69459 -3.91715,-0.32652 -10.63153,-1.04659 -14.92082,-1.6002 -6.76881,-0.87373 -7.79876,-0.52439 -7.79876,2.64526 0,2.14277 -1.07429,3.30285 -2.59958,2.80721 -3.5923,-1.16735 -6.22555,0.78323 -11.54792,8.5542 -5.66236,8.26744 -5.76452,12.70163 -0.41013,17.79766 2.28762,2.1773 4.15932,4.86549 4.15932,5.97387 0,1.10834 3.21148,3.205 7.1366,4.6592 3.92517,1.4542 7.72375,3.48639 8.44142,4.51595 0.71762,1.02956 3.10341,1.87193 5.30172,1.87193 2.52903,0 4.47624,1.69313 5.30189,4.61004 0.71769,2.53553 2.19455,4.61005 3.28183,4.61005 5.29297,0 -1.54108,3.61828 -10.8143,5.72565 -8.02475,1.82363 -10.73631,3.36408 -11.65889,6.6234 -0.6612,2.33589 -1.9088,4.24708 -2.77247,4.24708 -0.86364,0 -1.46404,1.69073 -1.33426,3.75718 0.44551,7.09412 9.08108,8.63878 20.51268,3.66911 z m -63.447105,-6.83933 c 3.80605,-1.60148 7.81744,-4.39849 8.91424,-6.21559 1.09674,-1.81714 3.33537,-4.49314 4.9747,-5.94675 11.236065,-9.96284 14.743915,-24.05798 7.44497,-29.91494 -2.28764,-1.83571 -4.15936,-4.68398 -4.15936,-6.32957 0,-1.64556 -1.56918,-4.9784 -3.4871,-7.40636 -3.30665,-4.18597 -3.5682,-4.23107 -5.05301,-0.87132 -1.31845,2.98337 -1.58896,2.75916 -1.71201,-1.41908 -0.17712,-6.015 -0.83682,-6.40462 -18.37129,-10.85084 -14.94289,-3.78904 -21.25087,-3.3027 -21.35171,1.64624 -0.0523,2.57545 -0.4581,2.47595 -2.38638,-0.58529 -1.27776,-2.02841 -2.54264,-3.93586 -2.81088,-4.23876 -0.26836,-0.30282 -2.93775,-0.004 -5.93225,0.66093 -4.23325,0.94206 -5.44457,2.34775 -5.44457,6.31802 0,6.36716 4.53065,9.85024 12.55002,9.64805 3.41903,-0.0861 6.20288,0.81666 6.24756,2.02619 0.0443,1.19996 0.14825,14.21386 0.23129,28.91989 0.0827,14.70602 0.58979,27.38946 1.12669,28.18539 1.46097,2.16594 21.30686,-0.2969 29.21924,-3.62621 z"
       id="path4339"
       inkscape:connector-curvature="0" />
    <path
       style="opacity:1;fill:#b3b3b3;fill-opacity:0;stroke:none;stroke-width:1.17200005;stroke-miterlimit:4;stroke-dasharray:none;stroke-opacity:1"
       d="m 76.286615,931.61753 c -20.45571,-2.41004 -46.59411,-9.98505 -60.96284,-17.6674 -7.0758696,-3.78309 -20.5859836,-13.58427 -30.022456,-21.78031 l -17.15723,-14.90177 0,-71.15365 0,-71.15369 9.710947,4.35923 c 18.4373594,8.2765 31.5739194,4.33863 41.329649,-12.38919 5.0652,-8.68519 5.20897,-46.28945 0.19573,-51.2013 -1.87223,-1.8344 -3.40406,-4.72205 -3.40406,-6.41705 0,-4.04225 -7.7964996,-4.06796 -8.6860796,-0.0279 -0.56935,2.58526 -1.04171,2.6559 -3.08205,0.461 -1.9195,-2.06488 -0.22843,-5.00863 8.3133596,-14.47148 7.94321,-8.79978 10.90846,-11.02546 11.43841,-8.58555 0.58228,2.68108 2.51757,1.76332 10.40359,-4.9337 5.32852,-4.52509 15.20674,-12.69381 21.9516,-18.15267 11.54556,-9.34421 12.20101,-9.62576 11.19715,-4.81011 -0.58642,2.81325 -0.29972,5.53507 0.63719,6.04851 2.5248,1.38358 24.31683,-22.78706 26.9691,-29.91281 1.25796,-3.37972 3.57892,-6.14497 5.157745,-6.14497 3.55547,0 11.37578,11.64128 19.37521,28.84204 6.75621,14.52751 13.74536,22.79036 19.27722,22.79036 5.58078,0 6.69449,3.34301 1.3383,4.01718 -2.59054,0.32617 -4.43301,1.42266 -4.09429,2.43686 0.91573,2.74234 12.64959,1.69005 16.67841,-1.49576 3.00554,-2.37661 3.88289,-2.40158 6.18404,-0.17596 1.47485,1.42649 6.39573,2.59367 10.93524,2.59367 l 8.25369,0 7.55369,14.29109 c 4.15452,7.8601 8.19106,15.48646 8.97008,16.94739 2.63008,4.93218 6.31846,4.29786 6.31846,-1.08667 l 0,-5.19173 4.86913,6.42111 c 2.67803,3.53156 6.54347,10.35089 8.58994,15.15399 2.04641,4.80311 5.00249,9.67607 6.56901,10.82885 2.33487,1.71824 2.84825,17.22662 2.84825,86.04391 l 0,83.94791 -7.61922,8.24462 c -9.49601,10.27556 -35.30612,28.60507 -48.84551,34.68855 -23.36751,10.49947 -64.78846,16.64873 -91.191405,13.53808 z M 141.2761,745.57342 c 3.1455,-1.36744 5.7191,-3.23184 5.7191,-4.14308 0,-0.91128 0.7122,-1.26658 1.58268,-0.78957 3.29705,1.80683 8.57966,-3.92704 11.89291,-12.90888 l 3.43826,-9.32073 -6.47692,-8.50953 c -6.90274,-9.06891 -17.51161,-16.91022 -20.59359,-15.22127 -2.84778,1.56059 -8.94385,-7.87718 -7.56902,-11.71814 1.60173,-4.4748 13.13396,-6.54939 17.54446,-3.15615 6.16863,4.74582 9.43936,4.47303 12.05662,-1.00565 3.73465,-7.8177 0.7702,-12.97429 -7.87283,-13.69459 -3.91715,-0.32652 -10.63153,-1.04659 -14.92082,-1.6002 -6.76881,-0.87373 -7.79876,-0.52439 -7.79876,2.64526 0,2.14277 -1.07429,3.30285 -2.59958,2.80721 -3.5923,-1.16735 -6.22555,0.78323 -11.54792,8.5542 -5.66236,8.26744 -5.76452,12.70163 -0.41013,17.79766 2.28762,2.1773 4.15932,4.86549 4.15932,5.97387 0,1.10834 3.21148,3.205 7.1366,4.6592 3.92517,1.4542 7.72375,3.48639 8.44142,4.51595 0.71762,1.02956 3.10341,1.87193 5.30172,1.87193 2.52903,0 4.47624,1.69313 5.30189,4.61004 0.71769,2.53553 2.19455,4.61005 3.28183,4.61005 5.29297,0 -1.54108,3.61828 -10.8143,5.72565 -8.02475,1.82363 -10.73631,3.36408 -11.65889,6.6234 -0.6612,2.33589 -1.9088,4.24708 -2.77247,4.24708 -0.86364,0 -1.46404,1.69073 -1.33426,3.75718 0.44551,7.09412 9.08108,8.63878 20.51268,3.66911 z m -63.447105,-6.83933 c 3.80605,-1.60148 7.81744,-4.39849 8.91424,-6.21559 1.09674,-1.81714 3.33537,-4.49314 4.9747,-5.94675 11.236065,-9.96284 14.743915,-24.05798 7.44497,-29.91494 -2.28764,-1.83571 -4.15936,-4.68398 -4.15936,-6.32957 0,-1.64556 -1.56918,-4.9784 -3.4871,-7.40636 -3.30665,-4.18597 -3.5682,-4.23107 -5.05301,-0.87132 -1.31845,2.98337 -1.58896,2.75916 -1.71201,-1.41908 -0.17712,-6.015 -0.83682,-6.40462 -18.37129,-10.85084 -14.94289,-3.78904 -21.25087,-3.3027 -21.35171,1.64624 -0.0523,2.57545 -0.4581,2.47595 -2.38638,-0.58529 -1.27776,-2.02841 -2.54264,-3.93586 -2.81088,-4.23876 -0.26836,-0.30282 -2.93775,-0.004 -5.93225,0.66093 -4.23325,0.94206 -5.44457,2.34775 -5.44457,6.31802 0,6.36716 4.53065,9.85024 12.55002,9.64805 3.41903,-0.0861 6.20288,0.81666 6.24756,2.02619 0.0443,1.19996 0.14825,14.21386 0.23129,28.91989 0.0827,14.70602 0.58979,27.38946 1.12669,28.18539 1.46097,2.16594 21.30686,-0.2969 29.21924,-3.62621 z"
       id="path4341"
       inkscape:connector-curvature="0" />
    <path
       style="opacity:1;fill:#b3b3b3;fill-opacity:0;stroke:none;stroke-width:1.17200005;stroke-miterlimit:4;stroke-dasharray:none;stroke-opacity:1"
       d="m 76.286615,931.61753 c -20.45571,-2.41004 -46.59411,-9.98505 -60.96284,-17.6674 -7.0758696,-3.78309 -20.5859836,-13.58427 -30.022456,-21.78031 l -17.15723,-14.90177 0,-71.15365 0,-71.15369 9.710947,4.35923 c 18.4373594,8.2765 31.5739194,4.33863 41.329649,-12.38919 5.0652,-8.68519 5.20897,-46.28945 0.19573,-51.2013 -1.87223,-1.8344 -3.40406,-4.72205 -3.40406,-6.41705 0,-4.04225 -7.7964996,-4.06796 -8.6860796,-0.0279 -0.56935,2.58526 -1.04171,2.6559 -3.08205,0.461 -1.9195,-2.06488 -0.22843,-5.00863 8.3133596,-14.47148 7.94321,-8.79978 10.90846,-11.02546 11.43841,-8.58555 0.58228,2.68108 2.51757,1.76332 10.40359,-4.9337 5.32852,-4.52509 15.20674,-12.69381 21.9516,-18.15267 11.54556,-9.34421 12.20101,-9.62576 11.19715,-4.81011 -0.58642,2.81325 -0.29972,5.53507 0.63719,6.04851 2.5248,1.38358 24.31683,-22.78706 26.9691,-29.91281 1.25796,-3.37972 3.57892,-6.14497 5.157745,-6.14497 3.55547,0 11.37578,11.64128 19.37521,28.84204 6.75621,14.52751 13.74536,22.79036 19.27722,22.79036 5.58078,0 6.69449,3.34301 1.3383,4.01718 -2.59054,0.32617 -4.43301,1.42266 -4.09429,2.43686 0.91573,2.74234 12.64959,1.69005 16.67841,-1.49576 3.00554,-2.37661 3.88289,-2.40158 6.18404,-0.17596 1.47485,1.42649 6.39573,2.59367 10.93524,2.59367 l 8.25369,0 7.55369,14.29109 c 4.15452,7.8601 8.19106,15.48646 8.97008,16.94739 2.63008,4.93218 6.31846,4.29786 6.31846,-1.08667 l 0,-5.19173 4.86913,6.42111 c 2.67803,3.53156 6.54347,10.35089 8.58994,15.15399 2.04641,4.80311 5.00249,9.67607 6.56901,10.82885 2.33487,1.71824 2.84825,17.22662 2.84825,86.04391 l 0,83.94791 -7.61922,8.24462 c -9.49601,10.27556 -35.30612,28.60507 -48.84551,34.68855 -23.36751,10.49947 -64.78846,16.64873 -91.191405,13.53808 z M 141.2761,745.57342 c 3.1455,-1.36744 5.7191,-3.23184 5.7191,-4.14308 0,-0.91128 0.7122,-1.26658 1.58268,-0.78957 3.29705,1.80683 8.57966,-3.92704 11.89291,-12.90888 l 3.43826,-9.32073 -6.47692,-8.50953 c -6.90274,-9.06891 -17.51161,-16.91022 -20.59359,-15.22127 -2.84778,1.56059 -8.94385,-7.87718 -7.56902,-11.71814 1.60173,-4.4748 13.13396,-6.54939 17.54446,-3.15615 6.16863,4.74582 9.43936,4.47303 12.05662,-1.00565 3.73465,-7.8177 0.7702,-12.97429 -7.87283,-13.69459 -3.91715,-0.32652 -10.63153,-1.04659 -14.92082,-1.6002 -6.76881,-0.87373 -7.79876,-0.52439 -7.79876,2.64526 0,2.14277 -1.07429,3.30285 -2.59958,2.80721 -3.5923,-1.16735 -6.22555,0.78323 -11.54792,8.5542 -5.66236,8.26744 -5.76452,12.70163 -0.41013,17.79766 2.28762,2.1773 4.15932,4.86549 4.15932,5.97387 0,1.10834 3.21148,3.205 7.1366,4.6592 3.92517,1.4542 7.72375,3.48639 8.44142,4.51595 0.71762,1.02956 3.10341,1.87193 5.30172,1.87193 2.52903,0 4.47624,1.69313 5.30189,4.61004 0.71769,2.53553 2.19455,4.61005 3.28183,4.61005 5.29297,0 -1.54108,3.61828 -10.8143,5.72565 -8.02475,1.82363 -10.73631,3.36408 -11.65889,6.6234 -0.6612,2.33589 -1.9088,4.24708 -2.77247,4.24708 -0.86364,0 -1.46404,1.69073 -1.33426,3.75718 0.44551,7.09412 9.08108,8.63878 20.51268,3.66911 z m -63.447105,-6.83933 c 3.80605,-1.60148 7.81744,-4.39849 8.91424,-6.21559 1.09674,-1.81714 3.33537,-4.49314 4.9747,-5.94675 11.236065,-9.96284 14.743915,-24.05798 7.44497,-29.91494 -2.28764,-1.83571 -4.15936,-4.68398 -4.15936,-6.32957 0,-1.64556 -1.56918,-4.9784 -3.4871,-7.40636 -3.30665,-4.18597 -3.5682,-4.23107 -5.05301,-0.87132 -1.31845,2.98337 -1.58896,2.75916 -1.71201,-1.41908 -0.17712,-6.015 -0.83682,-6.40462 -18.37129,-10.85084 -14.94289,-3.78904 -21.25087,-3.3027 -21.35171,1.64624 -0.0523,2.57545 -0.4581,2.47595 -2.38638,-0.58529 -1.27776,-2.02841 -2.54264,-3.93586 -2.81088,-4.23876 -0.26836,-0.30282 -2.93775,-0.004 -5.93225,0.66093 -4.23325,0.94206 -5.44457,2.34775 -5.44457,6.31802 0,6.36716 4.53065,9.85024 12.55002,9.64805 3.41903,-0.0861 6.20288,0.81666 6.24756,2.02619 0.0443,1.19996 0.14825,14.21386 0.23129,28.91989 0.0827,14.70602 0.58979,27.38946 1.12669,28.18539 1.46097,2.16594 21.30686,-0.2969 29.21924,-3.62621 z"
       id="path4343"
       inkscape:connector-curvature="0" />
    <path
       style="fill:#000000"
       d="M 275.22103,955.27714 C 210.15151,943.14371 155.40501,914.12372 108.39196,866.84466 l -26.995985,-27.14869 0,-176.5006 c 0,-97.15199 -1.46106,-177.04764 -3.24982,-177.71729 -3.67279,-1.37504 21.29259,-63.37264 30.834215,-76.57223 6.1291,-8.47884 6.18161,-8.38973 3.80848,6.45712 -4.75651,29.75661 3.11426,24.40929 53.47,-36.32669 12.88295,-15.53869 25.14541,-27.20912 27.2499,-25.93418 2.10436,1.275 2.99996,4.42848 1.99034,7.00773 -1.0097,2.57937 7.84947,-4.56765 19.68704,-15.88219 11.83759,-11.31452 31.91736,-29.73243 44.62173,-40.92855 l 23.09868,-20.35655 -2.53436,14.88136 -2.53426,14.88145 15.21636,-16.42562 c 8.36892,-9.03405 20.72147,-26.68543 27.45007,-39.22536 6.72856,-12.53977 13.42516,-22.80582 14.88135,-22.81329 6.18454,-0.0356 19.19734,18.26634 31.14037,43.78811 20.7492,44.33943 25.30751,51.93851 34.79273,58.00152 l 9.00337,5.75491 -2.50743,-17.93269 -2.50745,-17.9328 9.50346,8.75193 c 5.22693,4.81357 16.36423,17.46923 24.74959,28.12376 8.3854,10.65457 16.1857,18.4508 17.33415,17.32492 1.14848,-1.12573 1.6726,-8.09498 1.16476,-15.48714 l -0.92345,-13.44042 9.78829,9.00667 c 16.2401,14.94357 38.66786,50.69683 44.82469,71.45761 7.10534,23.95958 12.75404,28.41415 12.75404,10.05791 l 0,-13.69998 9.47788,12.57201 c 5.21278,6.9147 13.90836,21.60616 19.32359,32.64778 5.41532,11.04169 12.87948,23.99295 16.58732,28.7808 6.28665,8.11781 6.74149,20.38864 6.74149,181.92138 l 0,173.21645 -34.46813,33.43602 c -45.39051,44.03157 -83.57658,65.66907 -142.63135,80.81995 -32.09326,8.23381 -91.05921,10.06818 -124.31259,3.86736 z M 22.887735,815.08547 C -93.45189,775.68152 -126.87055,629.93199 -38.509627,547.31266 -26.650142,536.22369 -9.9514546,523.65271 -1.4013446,519.37679 13.417515,511.96596 51.497285,500.6869 61.698555,500.6869 c 3.84887,0 4.8031,31.90486 4.8031,160.60558 l 0,160.60558 -12.10169,-0.11844 c -6.65589,-0.0719 -20.83645,-3.07747 -31.51223,-6.69342 z m 568.639585,-153.44995 0,-161.2794 13.96346,2.42949 c 74.00058,12.87485 127.09961,64.69743 139.06509,135.72193 11.46125,68.03141 -26.71302,138.43827 -91.4927,168.74484 -13.31971,6.23157 -32.61416,12.30475 -42.87664,13.49624 l -18.65921,2.16632 0,-161.27942 z M -56.361821,527.23512 c 0.01182,-7.57503 2.507537,-28.83769 5.553932,-47.25032 26.062442,-157.52262 130.166044,-276.06555 275.561909,-313.7829 31.88134,-8.27039 45.26771,-9.70853 93.08972,-10.00089 57.23454,-0.35038 79.94666,2.69455 124.74016,16.72172 128.6429,40.2846 223.40422,151.6864 251.19712,295.30834 5.99123,30.95947 7.49756,58.00661 3.23095,58.00661 -1.37466,0 -5.14486,-2.29858 -8.37809,-5.10801 -3.23331,-2.80949 -14.9882,-9.89755 -26.12215,-15.7515 l -20.24347,-10.64342 -6.47291,-29.49476 C 600.54594,304.61682 466.85448,201.45898 304.81124,209.84856 262.1396,212.05782 214.01713,223.82828 180.78792,240.18381 94.135135,282.83449 29.152675,369.10482 8.0769254,469.47396 c -5.74657,27.36688 -8.09364995,32.6564 -16.346751,36.84003 -5.3002694,2.68682 -18.2925444,11.59206 -28.8718514,19.78958 l -19.235106,14.90453 0.01182,-13.77298 z"
       id="path5804"
       inkscape:connector-curvature="0" />
    <text
       xml:space="preserve"
       style="font-style:normal;font-variant:normal;font-weight:normal;font-stretch:normal;font-size:218.62179565px;line-height:125%;font-family:Chalkduster;-inkscape-font-specification:'Chalkduster, Normal';text-align:center;letter-spacing:0px;word-spacing:0px;writing-mode:lr-tb;text-anchor:middle;fill:#cccccc;fill-opacity:1;stroke:none;stroke-width:1px;stroke-linecap:butt;stroke-linejoin:miter;stroke-opacity:1"
       x="330.67975"
       y="703.51678"
       id="text4333"
       sodipodi:linespacing="125%"
       transform="scale(0.97542218,1.0251971)"><tspan
         sodipodi:role="line"
         id="tspan4335"
         x="330.67975"
         y="703.51678">JDS</tspan></text>
    <text
       xml:space="preserve"
       style="font-style:normal;font-variant:normal;font-weight:normal;font-stretch:normal;font-size:40px;line-height:125%;font-family:Chalkduster;-inkscape-font-specification:'Chalkduster, Normal';text-align:center;letter-spacing:0px;word-spacing:0px;writing-mode:lr-tb;text-anchor:middle;fill:#000000;fill-opacity:1;stroke:none;stroke-width:1px;stroke-linecap:butt;stroke-linejoin:miter;stroke-opacity:1"
       x="-64.285713"
       y="-216.20921"
       id="text5928"
       sodipodi:linespacing="125%"><tspan
         sodipodi:role="line"
         id="tspan5930"
         x="-64.285713"
         y="-216.20921" /></text>
    <text
       xml:space="preserve"
       style="font-style:normal;font-variant:normal;font-weight:normal;font-stretch:normal;font-size:40px;line-height:125%;font-family:Chalkduster;-inkscape-font-specification:'Chalkduster, Normal';text-align:center;letter-spacing:0px;word-spacing:0px;writing-mode:lr-tb;text-anchor:middle;fill:#000000;fill-opacity:1;stroke:none;stroke-width:1px;stroke-linecap:butt;stroke-linejoin:miter;stroke-opacity:1"
       x="520"
       y="129.50507"
       id="text5932"
       sodipodi:linespacing="125%"><tspan
         sodipodi:role="line"
         id="tspan5934"
         x="520"
         y="129.50507" /></text>
  </g>
</svg>
